<svg width="392" height="388" viewBox="0 0 392 388" fill="none" xmlns="http://www.w3.org/2000/svg">
<path d="M95.5 48C95.5 74.2335 74.2335 95.5 48 95.5C41.6078 95.5 35.5105 94.2374 29.944 91.9479C45.6452 67.0247 66.9262 45.8836 92.0633 30.2272C94.2798 35.7171 95.5 41.7161 95.5 48ZM91.674 29.292C66.3022 45.0653 44.8303 66.3952 29.0108 91.5523C28.5268 91.341 28.0471 91.1219 27.5718 90.8951C43.2613 65.0297 65.0297 43.2613 90.8951 27.5718C91.1657 28.139 91.4255 28.7125 91.674 29.292ZM27.0529 91.7557C27.5227 91.981 27.9968 92.199 28.4748 92.4095C23.4095 100.558 18.9353 109.104 15.1112 117.989C14.8716 117.668 14.6346 117.346 14.4002 117.022C17.9915 108.247 22.2288 99.8055 27.0529 91.7557ZM90.4531 26.6701C64.3911 42.4621 42.4621 64.3911 26.6701 90.4531C25.1022 89.6638 23.584 88.7902 22.1215 87.8382C37.5219 60.327 60.327 37.5219 87.8382 22.1215C88.7902 23.584 89.6638 25.1022 90.4531 26.6701ZM21.6344 88.7144C23.0886 89.658 24.5965 90.5259 26.1526 91.3123C21.4274 99.2049 17.2632 107.472 13.715 116.058C12.771 114.708 11.8712 113.324 11.0178 111.909C13.9862 103.875 17.5425 96.1263 21.6344 88.7144ZM87.2821 21.2866C59.6629 36.7641 36.7641 59.6629 21.2866 87.2821C19.0044 85.7271 16.8647 83.9784 14.8912 82.0596C29.0659 52.812 52.812 29.0659 82.0596 14.8912C83.9784 16.8647 85.7271 19.0044 87.2821 21.2866ZM14.4352 83.0094C16.4045 84.898 18.5329 86.6221 20.7983 88.1595C16.795 95.4025 13.3005 102.966 10.3628 110.801C8.97092 108.4 7.71114 105.912 6.59334 103.348C8.70277 96.3291 11.3316 89.5345 14.4352 83.0094ZM81.3143 14.1413C52.1096 28.3811 28.3811 52.1096 14.1413 81.3143C12.1887 79.3299 10.4092 77.1747 8.82721 74.8731C20.8028 44.7942 44.7942 20.8028 74.8731 8.82721C77.1747 10.4092 79.3299 12.1887 81.3143 14.1413ZM8.38838 75.992C9.97441 78.2323 11.7457 80.3322 13.68 82.2693C10.6605 88.5789 8.08236 95.1401 5.98553 101.913C4.87589 99.2118 3.92246 96.4302 3.13647 93.5791C4.43665 87.5316 6.20028 81.6562 8.38838 75.992ZM73.866 8.1537C44.0429 20.2286 20.2286 44.0429 8.1537 73.866C7.08111 72.2171 6.10811 70.4974 5.2432 68.7156C14.9397 38.674 38.674 14.9397 68.7156 5.2432C70.4974 6.10811 72.2171 7.08111 73.866 8.1537ZM4.8109 70.0895C5.68021 71.7858 6.64651 73.4241 7.70248 74.9972C5.61547 80.3084 3.89933 85.8061 2.58594 91.4583C2.11546 89.5271 1.72128 87.566 1.40677 85.5784C2.13012 80.2691 3.27652 75.0945 4.8109 70.0895ZM67.3915 4.62559C37.8647 14.5106 14.5106 37.8647 4.62559 67.3915C3.50518 64.8892 2.59495 62.2723 1.91734 59.5632C7.69562 30.5513 30.5513 7.69562 59.5632 1.91734C62.2723 2.59495 64.8892 3.50518 67.3915 4.62559ZM1.50197 61.8354C2.21536 64.2365 3.10968 66.5599 4.16911 68.7895C2.79945 73.0926 1.71458 77.5228 0.936625 82.0577C0.648079 79.4115 0.5 76.723 0.5 74C0.5 69.8561 0.842934 65.7923 1.50197 61.8354ZM57.2274 1.39567C29.5502 7.76356 7.76356 29.5502 1.39567 57.2274C0.808029 54.2425 0.5 51.1572 0.5 48C0.5 21.7665 21.7665 0.5 48 0.5C51.1572 0.5 54.2425 0.808029 57.2274 1.39567ZM74 0.5C76.723 0.5 79.4115 0.648079 82.0577 0.936625C77.5228 1.71458 73.0926 2.79945 68.7895 4.16911C66.5599 3.10968 64.2365 2.21536 61.8354 1.50197C65.7923 0.842934 69.8561 0.5 74 0.5ZM70.0895 4.8109C75.0945 3.27652 80.2691 2.13012 85.5784 1.40677C87.566 1.72128 89.5271 2.11546 91.4583 2.58594C85.8061 3.89933 80.3084 5.61547 74.9972 7.70248C73.4241 6.64651 71.7858 5.68021 70.0895 4.8109ZM93.6083 2.10739C92.081 1.69181 90.5342 1.3236 88.9696 1.00443C92.2677 0.67086 95.6139 0.5 99 0.5C100.182 0.5 101.36 0.520828 102.532 0.562137C99.5201 0.966034 96.5442 1.48258 93.6083 2.10739ZM95.6823 2.70439C99.8176 1.8942 104.03 1.30001 108.308 0.934034C111.291 1.21359 114.234 1.62613 117.134 2.16567C112.476 3.06899 107.898 4.19442 103.411 5.5305C100.903 4.45168 98.3238 3.50665 95.6823 2.70439ZM119.792 1.67574C117.814 1.2551 115.813 0.893268 113.793 0.592162C115.354 0.530912 116.924 0.5 118.5 0.5C121.01 0.5 123.502 0.578379 125.973 0.732822C123.899 1.00375 121.838 1.31837 119.792 1.67574ZM104.828 6.15743C109.708 4.74781 114.695 3.58856 119.773 2.69448C122.62 3.30562 125.421 4.0398 128.171 4.89116C122.673 6.30452 117.282 7.98361 112.012 9.91392C109.696 8.53674 107.298 7.28162 104.828 6.15743ZM130.013 4.42846C127.509 3.60783 124.962 2.88387 122.375 2.261C125.248 1.8092 128.149 1.44206 131.076 1.16223C133.937 1.46536 136.768 1.87074 139.564 2.37466C136.348 2.97042 133.164 3.65592 130.013 4.42846ZM113.11 10.5792C118.605 8.59573 124.232 6.88662 129.973 5.4684C131.554 5.9914 133.116 6.55333 134.66 7.15305C128.697 8.90896 122.857 10.9517 117.156 13.2654C115.839 12.3276 114.489 11.4315 113.11 10.5792ZM136.228 6.69855C134.766 6.10829 133.287 5.55177 131.791 5.02994C135.258 4.21408 138.766 3.50403 142.311 2.90338C143.89 3.22704 145.458 3.58226 147.014 3.96836C143.378 4.77454 139.782 5.68571 136.228 6.69855ZM118.113 13.9578C123.991 11.5952 130.016 9.52176 136.172 7.75508C136.646 7.94847 137.118 8.14545 137.589 8.34599C131.398 10.2588 125.339 12.4652 119.428 14.9485C118.993 14.6136 118.555 14.2833 118.113 13.9578ZM139.066 7.8959C138.62 7.69967 138.173 7.50662 137.724 7.31677C141.493 6.27021 145.31 5.33844 149.171 4.52544C149.577 4.63428 149.981 4.74523 150.385 4.85827C146.568 5.76227 142.793 6.776 139.066 7.8959ZM120.331 15.6548C126.403 13.1238 132.632 10.8863 138.999 8.96032C173.467 24.2953 197.5 58.8411 197.5 99C197.5 153.4 153.4 197.5 99 197.5C58.617 197.5 23.9099 173.198 8.70536 138.421C10.6141 132.126 12.8387 125.966 15.361 119.959C28.9998 137.336 50.1962 148.5 74 148.5C115.145 148.5 148.5 115.145 148.5 74C148.5 50.3664 137.495 29.3031 120.331 15.6548ZM8.26525 139.894C23.864 174.45 58.6235 198.5 99 198.5C153.952 198.5 198.5 153.952 198.5 99C198.5 58.8452 174.714 24.2459 140.462 8.52394C144.376 7.37315 148.341 6.33981 152.354 5.42806C201.024 19.979 236.5 65.0966 236.5 118.5C236.5 183.67 183.67 236.5 118.5 236.5C64.8316 236.5 19.5314 200.671 5.2137 151.628C6.10943 147.67 7.12799 143.757 8.26525 139.894ZM14.6585 119.049C12.1848 124.892 9.99172 130.88 8.09572 136.996C7.98097 136.722 7.86742 136.447 7.75508 136.172C9.52176 130.016 11.5952 123.991 13.9578 118.113C14.189 118.427 14.4225 118.739 14.6585 119.049ZM7.31677 137.724C7.42397 137.978 7.5322 138.231 7.64143 138.483C6.53605 142.154 5.53747 145.87 4.64926 149.629C4.60769 149.476 4.56641 149.324 4.52544 149.171C5.33844 145.31 6.27021 141.493 7.31677 137.724ZM13.2654 117.156C10.9517 122.857 8.90896 128.697 7.15305 134.66C6.55333 133.116 5.9914 131.554 5.4684 129.973C6.88662 124.232 8.59573 118.605 10.5792 113.11C11.4315 114.489 12.3276 115.839 13.2654 117.156ZM5.02994 131.791C5.55177 133.287 6.10829 134.766 6.69855 136.228C5.68571 139.782 4.77454 143.378 3.96836 147.014C3.58226 145.458 3.22704 143.89 2.90338 142.311C3.50403 138.766 4.21408 135.258 5.02994 131.791ZM9.91392 112.012C7.98361 117.282 6.30452 122.673 4.89116 128.171C4.0398 125.421 3.30562 122.62 2.69448 119.773C3.58856 114.695 4.74781 109.708 6.15743 104.828C7.28162 107.298 8.53674 109.696 9.91392 112.012ZM2.261 122.375C2.88387 124.962 3.60783 127.509 4.42846 130.013C3.65592 133.164 2.97042 136.348 2.37466 139.564C1.87074 136.768 1.46536 133.937 1.16223 131.076C1.44206 128.149 1.8092 125.248 2.261 122.375ZM5.5305 103.411C4.19442 107.898 3.06899 112.476 2.16567 117.134C1.62613 114.234 1.21359 111.291 0.934034 108.308C1.30001 104.03 1.8942 99.8176 2.70439 95.6823C3.50665 98.3238 4.45168 100.903 5.5305 103.411ZM0.592162 113.793C0.893268 115.813 1.2551 117.814 1.67574 119.792C1.31837 121.838 1.00375 123.899 0.732822 125.973C0.578379 123.502 0.5 121.01 0.5 118.5C0.5 116.924 0.530912 115.354 0.592162 113.793ZM2.10739 93.6083C1.48258 96.5442 0.966034 99.5201 0.562137 102.532C0.520828 101.36 0.5 100.182 0.5 99C0.5 95.6139 0.67086 92.2677 1.00443 88.9696C1.3236 90.5342 1.69181 92.081 2.10739 93.6083ZM142.328 1.88612C140.235 1.46072 138.122 1.09026 135.99 0.776304C138.97 0.593002 141.974 0.5 145 0.5C147.077 0.5 149.144 0.543831 151.2 0.630619C148.219 0.973341 145.261 1.39251 142.328 1.88612ZM145.022 2.46644C149.122 1.83969 153.27 1.35897 157.46 1.02974C158.702 1.13577 159.939 1.2575 161.171 1.39472C157.138 1.96941 153.146 2.67177 149.199 3.49756C147.817 3.12942 146.424 2.78555 145.022 2.46644ZM165.1 0.877C164.561 0.802639 164.022 0.731221 163.482 0.662764C165.068 0.593966 166.659 0.546827 168.256 0.521635C167.201 0.631416 166.149 0.749896 165.1 0.877ZM151.326 4.08503C155.857 3.1864 160.448 2.4511 165.091 1.8855C165.173 1.89691 165.255 1.90839 165.337 1.91993C160.971 2.60494 156.654 3.43154 152.389 4.39482C152.035 4.28995 151.681 4.18669 151.326 4.08503ZM154.332 4.98925C159.056 3.96654 163.845 3.11211 168.691 2.43264C237.226 13.7361 289.5 73.2634 289.5 145C289.5 224.805 224.805 289.5 145 289.5C72.9445 289.5 13.2072 236.76 2.28478 167.776C2.93967 163.004 3.77075 158.288 4.77135 153.633C19.759 202.205 65.0077 237.5 118.5 237.5C184.222 237.5 237.5 184.222 237.5 118.5C237.5 65.2645 202.543 20.1935 154.332 4.98925ZM4.18109 151.659C3.75873 153.538 3.36388 155.426 2.99699 157.325C3.32787 155.314 3.69073 153.314 4.08503 151.326C4.11689 151.437 4.14891 151.548 4.18109 151.659ZM2.46644 145.022C2.78555 146.424 3.12942 147.817 3.49756 149.199C2.67177 153.146 1.96941 157.138 1.39472 161.171C1.2575 159.939 1.13577 158.702 1.02974 157.46C1.35897 153.27 1.83969 149.122 2.46644 145.022ZM0.662764 163.482C0.731221 164.022 0.802639 164.561 0.877 165.1C0.749896 166.149 0.631416 167.201 0.521635 168.256C0.546827 166.659 0.593966 165.068 0.662764 163.482ZM1.88612 142.328C1.39251 145.261 0.973341 148.219 0.630619 151.2C0.543831 149.144 0.5 147.077 0.5 145C0.5 141.974 0.593002 138.97 0.776304 135.99C1.09026 138.122 1.46072 140.235 1.88612 142.328ZM290.5 145C290.5 73.8645 239.451 14.6521 171.989 1.99835C175.716 1.53937 179.475 1.18368 183.264 0.934268C271.704 7.22001 341.5 80.9591 341.5 171C341.5 265.165 265.165 341.5 171 341.5C80.5891 341.5 6.61412 271.129 0.860183 182.172C1.08576 178.479 1.41627 174.814 1.84881 171.179C14.1788 239.042 73.5801 290.5 145 290.5C225.357 290.5 290.5 225.357 290.5 145ZM342.5 171C342.5 82.8587 276.008 10.2475 190.448 0.590495C191.028 0.573132 191.608 0.558254 192.189 0.545874C293.808 2.77348 375.5 85.8466 375.5 188C375.5 291.553 291.553 375.5 188 375.5C85.4438 375.5 2.11857 293.162 0.523296 190.986C0.528364 190.658 0.534257 190.331 0.540973 190.004C9.99646 275.778 82.7063 342.5 171 342.5C265.717 342.5 342.5 265.717 342.5 171ZM376.5 188C376.5 92.5944 305.622 13.7432 213.649 1.23044C313.871 9.80674 392.5 92.8429 392.5 194C392.5 300.861 304.754 387.5 196.5 387.5C97.6682 387.5 15.9296 315.286 2.44981 221.399C18.2155 309.573 95.2919 376.5 188 376.5C292.106 376.5 376.5 292.106 376.5 188ZM15.8074 118.904C19.6806 109.832 24.2343 101.112 29.4055 92.8076C35.1319 95.1867 41.4126 96.5 48 96.5C74.7858 96.5 96.5 74.7858 96.5 48C96.5 41.5226 95.2302 35.3419 92.926 29.693C101.307 24.5327 110.112 19.98 119.277 16.0975C136.458 29.5513 147.5 50.4862 147.5 74C147.5 114.593 114.593 147.5 74 147.5C50.3165 147.5 29.2494 136.298 15.8074 118.904ZM117.022 14.4002C117.475 14.7276 117.924 15.06 118.369 15.3974C109.391 19.2307 100.76 23.7044 92.5341 28.7603C92.2853 28.1853 92.0258 27.6161 91.7557 27.0529C99.8055 22.2288 108.247 17.9915 117.022 14.4002ZM116.058 13.715C107.472 17.2632 99.2049 21.4274 91.3123 26.1526C90.5259 24.5965 89.658 23.0886 88.7144 21.6344C96.1263 17.5425 103.875 13.9862 111.909 11.0178C113.324 11.8712 114.708 12.771 116.058 13.715ZM110.801 10.3628C102.966 13.3005 95.4025 16.795 88.1595 20.7983C86.6221 18.5329 84.898 16.4045 83.0094 14.4352C89.5345 11.3316 96.3291 8.70277 103.348 6.59334C105.912 7.71114 108.4 8.97092 110.801 10.3628ZM82.2693 13.68C80.3322 11.7457 78.2323 9.97441 75.992 8.38838C81.6562 6.20028 87.5316 4.43665 93.5791 3.13647C96.4302 3.92246 99.2118 4.87589 101.913 5.98553C95.1401 8.08236 88.5789 10.6605 82.2693 13.68Z" stroke="url(#paint0_linear_90_1054)"/>
<defs>
<linearGradient id="paint0_linear_90_1054" x1="37.7604" y1="40.7813" x2="290" y2="268.854" gradientUnits="userSpaceOnUse">
<stop stop-color="#D200FF"/>
<stop offset="1" stop-color="#D9D9D9"/>
</linearGradient>
</defs>
</svg>
