<svg width="41" height="41" viewBox="0 0 41 41" fill="none" xmlns="http://www.w3.org/2000/svg">
<path fill-rule="evenodd" clip-rule="evenodd" d="M30.4254 7.63633C30.2888 7.63633 30.1521 7.60217 30.0325 7.53383C26.7525 5.84258 23.9167 5.12508 20.5171 5.12508C17.1346 5.12508 13.9229 5.928 11.0017 7.53383C10.5917 7.75592 10.0792 7.60217 9.84 7.19217C9.61792 6.78217 9.77167 6.25258 10.1817 6.0305C13.3592 4.30508 16.8442 3.41675 20.5171 3.41675C24.1558 3.41675 27.3333 4.21966 30.8183 6.01342C31.2454 6.2355 31.3992 6.748 31.1771 7.158C31.0233 7.4655 30.7329 7.63633 30.4254 7.63633ZM5.97917 16.6051C5.80834 16.6051 5.6375 16.5538 5.48375 16.4513C5.09084 16.178 5.00542 15.6484 5.27875 15.2555C6.97 12.8638 9.1225 10.9847 11.685 9.66925C17.0492 6.90175 23.9167 6.88467 29.2979 9.65216C31.8604 10.9676 34.0129 12.8297 35.7042 15.2042C35.9775 15.5801 35.8921 16.1267 35.4992 16.4001C35.1063 16.6734 34.5767 16.588 34.3033 16.1951C32.7658 14.0426 30.8183 12.3513 28.5121 11.1726C23.6092 8.66133 17.3396 8.66133 12.4538 11.1897C10.1304 12.3855 8.18292 14.0938 6.64542 16.2463C6.50875 16.4855 6.2525 16.6051 5.97917 16.6051ZM16.0583 36.9684C16.2121 37.1392 16.4342 37.2247 16.6563 37.2247C16.8783 37.2247 17.1004 37.1392 17.2883 36.9684C17.6129 36.6267 17.6129 36.0972 17.2883 35.7555C15.9729 34.423 15.2213 33.5859 14.1279 31.6213C13.0858 29.7763 12.5392 27.5042 12.5392 25.0442C12.5392 20.9101 16.1096 17.5447 20.5 17.5447C24.8904 17.5447 28.4608 20.9101 28.4608 25.0442C28.4608 25.5226 28.8367 25.8984 29.315 25.8984C29.7933 25.8984 30.1692 25.5226 30.1692 25.0442C30.1692 19.9705 25.83 15.8363 20.5 15.8363C15.17 15.8363 10.8308 19.9705 10.8308 25.0442C10.8308 27.7947 11.4458 30.3572 12.6246 32.4584C13.7692 34.5255 14.5721 35.4822 16.0583 36.9684ZM28.905 34.0642C26.8721 34.0642 25.0783 33.5517 23.6092 32.5438C21.0638 30.8184 19.5433 28.0167 19.5433 25.0442C19.5433 24.5659 19.9192 24.1901 20.3975 24.1901C20.8758 24.1901 21.2517 24.5659 21.2517 25.0442C21.2517 27.453 22.4817 29.7251 24.5658 31.1259C25.7788 31.9459 27.1967 32.3388 28.905 32.3388C29.315 32.3388 29.9983 32.2876 30.6817 32.168C31.1429 32.0826 31.5871 32.3901 31.6725 32.8684C31.7579 33.3297 31.4504 33.7738 30.9721 33.8592C29.9983 34.0472 29.1442 34.0642 28.905 34.0642ZM25.2492 37.5493C25.3175 37.5663 25.4029 37.5834 25.4713 37.5834C25.83 37.5834 26.1888 37.3272 26.2742 36.9342C26.3938 36.4901 26.1375 36.0117 25.6763 35.8922C23.2675 35.2259 21.7129 34.3376 20.09 32.7318C18.0229 30.6818 16.8954 27.9484 16.8954 25.0272C16.8954 23.1992 18.4842 21.713 20.4488 21.713C22.4133 21.713 24.0021 23.1992 24.0021 25.0272C24.0021 27.7947 26.3596 30.0497 29.2638 30.0497C32.1679 30.0497 34.5254 27.7947 34.5254 25.0272C34.5254 17.6472 28.2046 11.6509 20.4317 11.6509C14.9138 11.6509 9.87417 14.743 7.60209 19.5092C6.83334 21.1322 6.44042 22.9942 6.44042 25.0443C6.44042 27.3505 6.85042 29.5713 7.6875 31.8092C7.84125 32.2363 8.33667 32.4755 8.78084 32.3047C9.225 32.1509 9.44709 31.6555 9.27625 31.2113C8.25125 28.478 8.13167 26.3768 8.13167 25.0443C8.13167 23.2676 8.47334 21.6447 9.13959 20.2609C11.1383 16.0755 15.58 13.3763 20.4317 13.3763C27.265 13.3763 32.8171 18.6038 32.8171 25.0443C32.8171 26.8722 31.2283 28.3584 29.2638 28.3584C27.2992 28.3584 25.7104 26.8722 25.7104 25.0443C25.7104 22.2768 23.3529 20.0217 20.4488 20.0217C17.5446 20.0217 15.1871 22.2768 15.1871 25.0443C15.1871 28.4268 16.5025 31.5872 18.8942 33.9618C20.7563 35.7897 22.5329 36.7976 25.2492 37.5493Z" fill="black" fill-opacity="0.54"/>
</svg>
