<svg width="21" height="21" viewBox="0 0 21 21" fill="none" xmlns="http://www.w3.org/2000/svg">
<path d="M17.9812 3.21558C17.9812 3.0187 17.9156 2.88745 17.7844 2.7562C17.6531 2.62495 17.5219 2.55933 17.325 2.55933C17.1281 2.55933 16.9969 2.62495 16.8656 2.7562L15.0938 4.52808C13.7812 3.87183 12.2719 3.47808 10.5 3.2812C7.21875 3.60933 4.59375 4.79058 2.75625 6.89058C0.91875 8.99058 0 10.1718 0 10.5C0 10.8281 0.984375 12.0093 2.75625 14.1093C3.21562 14.6343 3.675 15.0937 4.26562 15.4875L2.49375 17.3249C2.3625 17.4562 2.29688 17.5875 2.29688 17.7843C2.29688 17.9812 2.3625 18.1124 2.49375 18.2437C2.625 18.3749 2.75625 18.4406 2.95312 18.4406C3.15 18.4406 3.28125 18.3749 3.4125 18.2437L17.85 3.67495C17.9156 3.5437 17.9812 3.41245 17.9812 3.21558ZM4.725 14.0437C3.15 12.6 2.1 11.4187 1.575 10.5C2.16563 9.51558 3.21562 8.33433 4.725 6.9562C6.23437 5.57808 8.20312 4.72495 10.5 4.5937C11.8125 4.65933 13.0594 4.98745 14.1094 5.51245L12.9937 6.62808C12.2719 6.1687 11.4844 5.9062 10.5 5.9062C9.1875 5.9062 8.1375 6.36558 7.21875 7.2187C6.3 8.07183 5.90625 9.18745 5.90625 10.5C5.90625 11.4843 6.16875 12.3375 6.62813 13.0593L5.25 14.5031C5.05312 14.3718 4.85625 14.175 4.725 14.0437ZM7.6125 12.075C7.35 11.6156 7.21875 11.0906 7.21875 10.5C7.21875 9.5812 7.54688 8.7937 8.20312 8.20308C8.85938 7.61245 9.58125 7.2187 10.5 7.2187C11.0906 7.2187 11.6156 7.34995 12.0094 7.61245L7.6125 12.075ZM18.2437 6.89058C17.9812 6.56245 17.6531 6.29995 17.3906 6.03745L16.4062 7.02183C17.9156 8.39995 18.9656 9.5812 19.4906 10.5C18.9 11.4843 17.85 12.6656 16.3406 14.0437C14.8312 15.4218 12.7969 16.275 10.5 16.4062C9.44998 16.3406 8.4656 16.1437 7.61248 15.8156L6.6281 16.8C7.80935 17.2593 9.05623 17.5875 10.5 17.7187C13.7812 17.3906 16.4062 16.2093 18.2437 14.1093C20.0812 12.0093 21 10.8281 21 10.5C21 10.1718 20.0156 8.99058 18.2437 6.89058Z" fill="black"/>
<path d="M10.5 13.7812C10.2375 13.7812 9.97496 13.7156 9.71246 13.65L8.66246 14.7C9.25309 14.9625 9.84371 15.0937 10.5 15.0937C11.8125 15.0937 12.8625 14.6344 13.7812 13.7812C14.6343 12.9281 15.0937 11.8125 15.0937 10.5C15.0937 9.84373 14.9625 9.18748 14.7 8.66248L13.65 9.71248C13.7156 9.97498 13.7812 10.2375 13.7812 10.5C13.7812 11.4187 13.4531 12.2062 12.7968 12.7969C12.1406 13.3875 11.4187 13.7812 10.5 13.7812Z" fill="black"/>
</svg>
