<svg width="34" height="34" viewBox="0 0 34 34" fill="none" xmlns="http://www.w3.org/2000/svg">
<g clip-path="url(#clip0_128_340)">
<path d="M13.435 19.0921L14.8492 20.5063L17.8191 17.5364L17.8191 19.7992H19.799V14.1423H14.1421V16.1222L16.4049 16.1222L13.435 19.0921ZM9.8995 24.0418C8.92133 23.0637 8.18783 21.9587 7.69898 20.7269C7.21014 19.4951 6.96548 18.2431 6.965 16.9707C6.965 15.698 7.20966 14.4459 7.69898 13.2146C8.1883 11.9833 8.92181 10.8783 9.8995 9.89968C10.8777 8.92152 11.9826 8.18801 13.2144 7.69917C14.4462 7.21032 15.6982 6.96566 16.9706 6.96519C18.2434 6.96519 19.4954 7.20985 20.7267 7.69917C21.958 8.18848 23.063 8.92199 24.0416 9.89968C25.0198 10.8778 25.7533 11.9828 26.2421 13.2146C26.731 14.4464 26.9757 15.6984 26.9761 16.9707C26.9761 18.2435 26.7317 19.4958 26.2429 20.7276C25.754 21.9594 25.0203 23.0641 24.0416 24.0418C23.0635 25.02 21.9585 25.7535 20.7267 26.2423C19.4949 26.7312 18.2429 26.9758 16.9706 26.9763C15.6978 26.9763 14.4455 26.7319 13.2137 26.243C11.9819 25.7542 10.8772 25.0205 9.8995 24.0418ZM11.3137 22.6276C12.8929 24.2068 14.7785 24.9964 16.9706 24.9964C19.1626 24.9964 21.0482 24.2068 22.6274 22.6276C24.2066 21.0484 24.9962 19.1628 24.9962 16.9707C24.9962 14.7787 24.2066 12.8931 22.6274 11.3139C21.0482 9.73469 19.1626 8.94509 16.9706 8.94509C14.7785 8.94509 12.8929 9.73469 11.3137 11.3139C9.73451 12.8931 8.9449 14.7787 8.9449 16.9707C8.9449 19.1628 9.73451 21.0484 11.3137 22.6276Z" fill="#63D99E"/>
</g>
<defs>
<clipPath id="clip0_128_340">
<rect width="24" height="24" fill="white" transform="translate(16.9706) rotate(45)"/>
</clipPath>
</defs>
</svg>
