<svg width="184" height="100" viewBox="0 0 184 100" fill="none" xmlns="http://www.w3.org/2000/svg">
<path d="M86.273 64V47.691C86.273 41.91 83.124 38.338 77.719 38.338C74.1 38.338 71.985 40.265 70.34 42.38V29.69H63.196V64H70.34V49.947C70.34 46.563 72.079 44.824 74.805 44.824C77.531 44.824 79.129 46.563 79.129 49.947V64H86.273ZM114.146 64V49.383C114.146 42.568 110.715 38.526 102.913 38.526C98.6362 38.526 95.9102 39.325 93.1372 40.547L94.9232 45.999C97.2262 45.153 99.1532 44.636 101.879 44.636C105.451 44.636 107.284 46.281 107.284 49.242V49.665C105.498 49.054 103.665 48.631 101.127 48.631C95.1582 48.631 90.9752 51.169 90.9752 56.668V56.762C90.9752 61.744 94.8762 64.47 99.6232 64.47C103.101 64.47 105.498 63.201 107.237 61.274V64H114.146ZM107.378 55.117C107.378 57.702 105.122 59.535 101.785 59.535C99.4822 59.535 97.8842 58.407 97.8842 56.48V56.386C97.8842 54.13 99.7642 52.908 102.819 52.908C104.558 52.908 106.156 53.284 107.378 53.848V55.117ZM146.755 51.451V51.357C146.755 42.944 141.162 38.338 135.287 38.338C131.574 38.338 129.177 40.077 127.438 42.427V29.69H120.294V64H127.438V60.71C129.13 62.731 131.48 64.47 135.287 64.47C141.256 64.47 146.755 59.864 146.755 51.451ZM139.611 51.451C139.611 55.681 136.791 58.407 133.454 58.407C130.117 58.407 127.344 55.634 127.344 51.451V51.357C127.344 47.174 130.117 44.401 133.454 44.401C136.791 44.401 139.611 47.174 139.611 51.357V51.451ZM173.676 64V49.383C173.676 42.568 170.245 38.526 162.443 38.526C158.166 38.526 155.44 39.325 152.667 40.547L154.453 45.999C156.756 45.153 158.683 44.636 161.409 44.636C164.981 44.636 166.814 46.281 166.814 49.242V49.665C165.028 49.054 163.195 48.631 160.657 48.631C154.688 48.631 150.505 51.169 150.505 56.668V56.762C150.505 61.744 154.406 64.47 159.153 64.47C162.631 64.47 165.028 63.201 166.767 61.274V64H173.676ZM166.908 55.117C166.908 57.702 164.652 59.535 161.315 59.535C159.012 59.535 157.414 58.407 157.414 56.48V56.386C157.414 54.13 159.294 52.908 162.349 52.908C164.088 52.908 165.686 53.284 166.908 53.848V55.117Z" fill="black"/>
<path d="M20.3636 10.24C20.3636 15.8954 15.8051 20.48 10.1818 20.48C4.55855 20.48 0 15.8954 0 10.24C0 4.5846 4.55855 0 10.1818 0C15.8051 0 20.3636 4.5846 20.3636 10.24Z" fill="url(#paint0_linear_192_632)"/>
<path d="M42 53.76C42 59.4154 37.4414 64 31.8182 64C26.1949 64 21.6364 59.4154 21.6364 53.76C21.6364 48.1046 26.1949 43.52 31.8182 43.52C37.4414 43.52 42 48.1046 42 53.76Z" fill="url(#paint1_linear_192_632)"/>
<path d="M42 32C42 37.6554 37.4414 42.24 31.8182 42.24C26.1949 42.24 21.6364 37.6554 21.6364 32C21.6364 26.3446 26.1949 21.76 31.8182 21.76C37.4414 21.76 42 26.3446 42 32Z" fill="url(#paint2_linear_192_632)"/>
<path d="M20.3636 32C20.3636 37.6554 15.8051 42.24 10.1818 42.24C4.55855 42.24 0 37.6554 0 32C0 26.3446 4.55855 21.76 10.1818 21.76C15.8051 21.76 20.3636 26.3446 20.3636 32Z" fill="url(#paint3_linear_192_632)"/>
<path d="M20.3636 53.76C20.3636 59.4154 15.8051 64 10.1818 64C4.55855 64 0 59.4154 0 53.76C0 48.1046 4.55855 43.52 10.1818 43.52C15.8051 43.52 20.3636 48.1046 20.3636 53.76Z" fill="url(#paint4_linear_192_632)"/>
<defs>
<linearGradient id="paint0_linear_192_632" x1="21" y1="0" x2="21" y2="64" gradientUnits="userSpaceOnUse">
<stop stop-color="#8305BB"/>
<stop offset="0.5" stop-color="#74008C"/>
<stop offset="1" stop-color="#58026A"/>
</linearGradient>
<linearGradient id="paint1_linear_192_632" x1="21" y1="0" x2="21" y2="64" gradientUnits="userSpaceOnUse">
<stop stop-color="#8305BB"/>
<stop offset="0.5" stop-color="#74008C"/>
<stop offset="1" stop-color="#58026A"/>
</linearGradient>
<linearGradient id="paint2_linear_192_632" x1="21" y1="0" x2="21" y2="64" gradientUnits="userSpaceOnUse">
<stop stop-color="#8305BB"/>
<stop offset="0.5" stop-color="#74008C"/>
<stop offset="1" stop-color="#58026A"/>
</linearGradient>
<linearGradient id="paint3_linear_192_632" x1="21" y1="0" x2="21" y2="64" gradientUnits="userSpaceOnUse">
<stop stop-color="#8305BB"/>
<stop offset="0.5" stop-color="#74008C"/>
<stop offset="1" stop-color="#58026A"/>
</linearGradient>
<linearGradient id="paint4_linear_192_632" x1="21" y1="0" x2="21" y2="64" gradientUnits="userSpaceOnUse">
<stop stop-color="#8305BB"/>
<stop offset="0.5" stop-color="#74008C"/>
<stop offset="1" stop-color="#58026A"/>
</linearGradient>
</defs>
</svg>
