<svg width="80" height="80" viewBox="0 0 80 80" fill="none" xmlns="http://www.w3.org/2000/svg">
<rect width="80" height="80" fill="white"/>
<path d="M38.9697 22.32C38.9697 26.915 35.1709 30.64 30.4848 30.64C25.7988 30.64 22 26.915 22 22.32C22 17.725 25.7988 14 30.4848 14C35.1709 14 38.9697 17.725 38.9697 22.32Z" fill="url(#paint0_linear_196_641)"/>
<path d="M57 57.68C57 62.275 53.2012 66 48.5152 66C43.8291 66 40.0303 62.275 40.0303 57.68C40.0303 53.085 43.8291 49.36 48.5152 49.36C53.2012 49.36 57 53.085 57 57.68Z" fill="url(#paint1_linear_196_641)"/>
<path d="M57 40C57 44.595 53.2012 48.32 48.5152 48.32C43.8291 48.32 40.0303 44.595 40.0303 40C40.0303 35.405 43.8291 31.68 48.5152 31.68C53.2012 31.68 57 35.405 57 40Z" fill="url(#paint2_linear_196_641)"/>
<path d="M38.9697 40C38.9697 44.595 35.1709 48.32 30.4848 48.32C25.7988 48.32 22 44.595 22 40C22 35.405 25.7988 31.68 30.4848 31.68C35.1709 31.68 38.9697 35.405 38.9697 40Z" fill="url(#paint3_linear_196_641)"/>
<path d="M38.9697 57.68C38.9697 62.275 35.1709 66 30.4848 66C25.7988 66 22 62.275 22 57.68C22 53.085 25.7988 49.36 30.4848 49.36C35.1709 49.36 38.9697 53.085 38.9697 57.68Z" fill="url(#paint4_linear_196_641)"/>
<defs>
<linearGradient id="paint0_linear_196_641" x1="39.5" y1="14" x2="39.5" y2="66" gradientUnits="userSpaceOnUse">
<stop stop-color="#8305BB"/>
<stop offset="0.5" stop-color="#74008C"/>
<stop offset="1" stop-color="#58026A"/>
</linearGradient>
<linearGradient id="paint1_linear_196_641" x1="39.5" y1="14" x2="39.5" y2="66" gradientUnits="userSpaceOnUse">
<stop stop-color="#8305BB"/>
<stop offset="0.5" stop-color="#74008C"/>
<stop offset="1" stop-color="#58026A"/>
</linearGradient>
<linearGradient id="paint2_linear_196_641" x1="39.5" y1="14" x2="39.5" y2="66" gradientUnits="userSpaceOnUse">
<stop stop-color="#8305BB"/>
<stop offset="0.5" stop-color="#74008C"/>
<stop offset="1" stop-color="#58026A"/>
</linearGradient>
<linearGradient id="paint3_linear_196_641" x1="39.5" y1="14" x2="39.5" y2="66" gradientUnits="userSpaceOnUse">
<stop stop-color="#8305BB"/>
<stop offset="0.5" stop-color="#74008C"/>
<stop offset="1" stop-color="#58026A"/>
</linearGradient>
<linearGradient id="paint4_linear_196_641" x1="39.5" y1="14" x2="39.5" y2="66" gradientUnits="userSpaceOnUse">
<stop stop-color="#8305BB"/>
<stop offset="0.5" stop-color="#74008C"/>
<stop offset="1" stop-color="#58026A"/>
</linearGradient>
</defs>
</svg>
