<svg width="35" height="38" viewBox="0 0 35 38" fill="none" xmlns="http://www.w3.org/2000/svg">
<path d="M30.5139 22.8041C31.9107 22.4298 33.3493 23.2679 33.7273 24.6785C34.1046 26.0865 33.2777 27.5316 31.881 27.9059L8.02414 34.2983C6.62738 34.6725 5.18875 33.8345 4.81112 32.4252C4.43383 31.0171 5.26003 29.5695 6.65805 29.1949" stroke="#242424" stroke-width="2" stroke-linejoin="round"/>
<path d="M30.514 22.8041L28.7916 23.2656L25.8446 12.2675C24.3257 6.59877 18.5245 3.22818 12.8884 4.73836C7.25234 6.24854 3.91364 12.0682 5.43258 17.7369L8.3795 28.735L6.65713 29.1965" stroke="#242424" stroke-width="2" stroke-linecap="round" stroke-linejoin="round"/>
<path d="M15.4406 4.05452L15.2125 3.20339C14.8355 1.79657 13.3849 0.959059 11.9769 1.33635C10.5688 1.71364 9.73093 3.163 10.1086 4.57233L10.408 5.68999M12.2987 33.1529C12.9279 35.5014 15.3417 36.896 17.6902 36.2668C20.0386 35.6375 21.4317 33.2228 20.8024 30.8743" stroke="#242424" stroke-width="2" stroke-linejoin="round"/>
</svg>
