<svg width="51" height="51" viewBox="0 0 51 51" fill="none" xmlns="http://www.w3.org/2000/svg">
<path d="M24.0019 4.08637C24.1136 3.7787 24.3172 3.51287 24.5853 3.32501C24.8533 3.13715 25.1727 3.03637 25.5 3.03637C25.8273 3.03637 26.1467 3.13715 26.4147 3.32501C26.6828 3.51287 26.8865 3.7787 26.9981 4.08637L28.5218 8.24925C29.7152 11.5136 31.6067 14.478 34.0644 16.9356C36.522 19.3933 39.4865 21.2848 42.7508 22.4782L46.9104 24.0019C47.2181 24.1135 47.484 24.3172 47.6718 24.5853C47.8597 24.8533 47.9604 25.1727 47.9604 25.5C47.9604 25.8273 47.8597 26.1467 47.6718 26.4147C47.484 26.6828 47.2181 26.8865 46.9104 26.9981L42.7508 28.5217C39.4865 29.7152 36.522 31.6067 34.0644 34.0643C31.6067 36.522 29.7152 39.4864 28.5218 42.7507L26.9981 46.9104C26.8865 47.2181 26.6828 47.4839 26.4147 47.6718C26.1467 47.8597 25.8273 47.9604 25.5 47.9604C25.1727 47.9604 24.8533 47.8597 24.5853 47.6718C24.3172 47.4839 24.1136 47.2181 24.0019 46.9104L22.4783 42.7507C21.2848 39.4864 19.3933 36.522 16.9357 34.0643C14.478 31.6067 11.5136 29.7152 8.24926 28.5217L4.08638 26.9981C3.77871 26.8865 3.51287 26.6828 3.32501 26.4147C3.13715 26.1467 3.03638 25.8273 3.03638 25.5C3.03638 25.1727 3.13715 24.8533 3.32501 24.5853C3.51287 24.3172 3.77871 24.1135 4.08638 24.0019L8.24926 22.4782C11.5136 21.2848 14.478 19.3933 16.9357 16.9356C19.3933 14.478 21.2848 11.5136 22.4783 8.24925L24.0019 4.08637Z" fill="#710189"/>
</svg>
